<?xml version="1.0" encoding="UTF-8" standalone="no"?>
<!DOCTYPE svg PUBLIC "-//W3C//DTD SVG 1.1//EN"
 "http://www.w3.org/Graphics/SVG/1.1/DTD/svg11.dtd">
<!-- Generated by graphviz version 2.40.1 (20161225.0304)
 -->
<!-- Title: G Pages: 1 -->
<svg width="484pt" height="1410pt"
 viewBox="0.00 0.00 484.39 1410.00" xmlns="http://www.w3.org/2000/svg" xmlns:xlink="http://www.w3.org/1999/xlink">
<g id="graph0" class="graph" transform="scale(1 1) rotate(0) translate(4 1406)">
<title>G</title>
<polygon fill="#ffffff" stroke="transparent" points="-4,4 -4,-1406 480.3858,-1406 480.3858,4 -4,4"/>
<g id="clust1" class="cluster">
<title>cluster_Global</title>
<path fill="none" stroke="#c0c0c0" d="M69.0784,-260C69.0784,-260 456.3858,-260 456.3858,-260 462.3858,-260 468.3858,-266 468.3858,-272 468.3858,-272 468.3858,-1382 468.3858,-1382 468.3858,-1388 462.3858,-1394 456.3858,-1394 456.3858,-1394 69.0784,-1394 69.0784,-1394 63.0784,-1394 57.0784,-1388 57.0784,-1382 57.0784,-1382 57.0784,-272 57.0784,-272 57.0784,-266 63.0784,-260 69.0784,-260"/>
<text text-anchor="middle" x="262.7321" y="-1381.2" font-family="Times,serif" font-size="11.00" fill="#c0c0c0">Global</text>
</g>
<g id="clust2" class="cluster">
<title>cluster_\VivialConnect</title>
<path fill="none" stroke="#c0c0c0" d="M77.0784,-268C77.0784,-268 448.3858,-268 448.3858,-268 454.3858,-268 460.3858,-274 460.3858,-280 460.3858,-280 460.3858,-1355 460.3858,-1355 460.3858,-1361 454.3858,-1367 448.3858,-1367 448.3858,-1367 77.0784,-1367 77.0784,-1367 71.0784,-1367 65.0784,-1361 65.0784,-1355 65.0784,-1355 65.0784,-280 65.0784,-280 65.0784,-274 71.0784,-268 77.0784,-268"/>
<text text-anchor="middle" x="262.7321" y="-1354.2" font-family="Times,serif" font-size="11.00" fill="#c0c0c0">VivialConnect</text>
</g>
<g id="clust3" class="cluster">
<title>cluster_\VivialConnect\Resources</title>
<path fill="none" stroke="#c0c0c0" d="M85.0784,-837C85.0784,-837 440.3858,-837 440.3858,-837 446.3858,-837 452.3858,-843 452.3858,-849 452.3858,-849 452.3858,-1328 452.3858,-1328 452.3858,-1334 446.3858,-1340 440.3858,-1340 440.3858,-1340 85.0784,-1340 85.0784,-1340 79.0784,-1340 73.0784,-1334 73.0784,-1328 73.0784,-1328 73.0784,-849 73.0784,-849 73.0784,-843 79.0784,-837 85.0784,-837"/>
<text text-anchor="middle" x="262.7321" y="-1327.2" font-family="Times,serif" font-size="11.00" fill="#c0c0c0">Resources</text>
</g>
<g id="clust4" class="cluster">
<title>cluster_\VivialConnect\Transport</title>
<path fill="none" stroke="#c0c0c0" d="M320.1675,-704C320.1675,-704 440.3858,-704 440.3858,-704 446.3858,-704 452.3858,-710 452.3858,-716 452.3858,-716 452.3858,-817 452.3858,-817 452.3858,-823 446.3858,-829 440.3858,-829 440.3858,-829 320.1675,-829 320.1675,-829 314.1675,-829 308.1675,-823 308.1675,-817 308.1675,-817 308.1675,-716 308.1675,-716 308.1675,-710 314.1675,-704 320.1675,-704"/>
<text text-anchor="middle" x="380.2766" y="-816.2" font-family="Times,serif" font-size="11.00" fill="#c0c0c0">Transport</text>
</g>
<g id="clust5" class="cluster">
<title>cluster_\VivialConnect\Common</title>
<path fill="none" stroke="#c0c0c0" d="M320.1675,-355C320.1675,-355 440.3858,-355 440.3858,-355 446.3858,-355 452.3858,-361 452.3858,-367 452.3858,-367 452.3858,-684 452.3858,-684 452.3858,-690 446.3858,-696 440.3858,-696 440.3858,-696 320.1675,-696 320.1675,-696 314.1675,-696 308.1675,-690 308.1675,-684 308.1675,-684 308.1675,-367 308.1675,-367 308.1675,-361 314.1675,-355 320.1675,-355"/>
<text text-anchor="middle" x="380.2766" y="-683.2" font-family="Times,serif" font-size="11.00" fill="#c0c0c0">Common</text>
</g>
<g id="clust6" class="cluster">
<title>cluster_\VivialConnect\Filters</title>
<path fill="none" stroke="#c0c0c0" d="M349.8723,-276C349.8723,-276 410.6809,-276 410.6809,-276 416.6809,-276 422.6809,-282 422.6809,-288 422.6809,-288 422.6809,-335 422.6809,-335 422.6809,-341 416.6809,-347 410.6809,-347 410.6809,-347 349.8723,-347 349.8723,-347 343.8723,-347 337.8723,-341 337.8723,-335 337.8723,-335 337.8723,-288 337.8723,-288 337.8723,-282 343.8723,-276 349.8723,-276"/>
<text text-anchor="middle" x="380.2766" y="-334.2" font-family="Times,serif" font-size="11.00" fill="#c0c0c0">Filters</text>
</g>
<!-- \\VivialConnect\\Resources\\Resource -->
<g id="node1" class="node">
<title>\\VivialConnect\\Resources\\Resource</title>
<polygon fill="none" stroke="#000000" points="163.0945,-1151 81.073,-1151 81.073,-1115 163.0945,-1115 163.0945,-1151"/>
<text text-anchor="start" x="89.0784" y="-1135.2" font-family="Courier,monospace" font-size="11.00" fill="#000000">«abstract»</text>
<text text-anchor="start" x="95.6795" y="-1124.2" font-family="Courier,monospace" font-size="11.00" fill="#000000">Resource</text>
</g>
<!-- \\VivialConnect\\Resources\\Log -->
<g id="node2" class="node">
<title>\\VivialConnect\\Resources\\Log</title>
<polygon fill="none" stroke="#000000" points="407.2766,-1097 353.2766,-1097 353.2766,-1061 407.2766,-1061 407.2766,-1097"/>
<text text-anchor="middle" x="380.2766" y="-1075.7" font-family="Courier,monospace" font-size="11.00" fill="#000000">Log</text>
</g>
<!-- \\VivialConnect\\Resources\\Log&#45;&gt;\\VivialConnect\\Resources\\Resource -->
<g id="edge1" class="edge">
<title>\\VivialConnect\\Resources\\Log&#45;&gt;\\VivialConnect\\Resources\\Resource</title>
<path fill="none" stroke="#000000" d="M353.1335,-1084.6769C310.5617,-1093.5806 227.3785,-1110.978 173.3033,-1122.2876"/>
<polygon fill="none" stroke="#000000" points="172.301,-1118.9215 163.2293,-1124.3946 173.7341,-1125.7732 172.301,-1118.9215"/>
</g>
<!-- \\VivialConnect\\Resources\\Number -->
<g id="node3" class="node">
<title>\\VivialConnect\\Resources\\Number</title>
<polygon fill="none" stroke="#000000" points="407.8845,-1043 352.6688,-1043 352.6688,-1007 407.8845,-1007 407.8845,-1043"/>
<text text-anchor="middle" x="380.2766" y="-1021.7" font-family="Courier,monospace" font-size="11.00" fill="#000000">Number</text>
</g>
<!-- \\VivialConnect\\Resources\\Number&#45;&gt;\\VivialConnect\\Resources\\Resource -->
<g id="edge2" class="edge">
<title>\\VivialConnect\\Resources\\Number&#45;&gt;\\VivialConnect\\Resources\\Resource</title>
<path fill="none" stroke="#000000" d="M352.4093,-1035.0484C338.9743,-1039.9909 322.6663,-1046.1347 308.1675,-1052 261.345,-1070.9415 208.6116,-1094.0684 171.269,-1110.7539"/>
<polygon fill="none" stroke="#000000" points="169.8161,-1107.5696 162.1196,-1114.8508 172.6768,-1113.9583 169.8161,-1107.5696"/>
</g>
<!-- \\VivialConnect\\Resources\\Account -->
<g id="node4" class="node">
<title>\\VivialConnect\\Resources\\Account</title>
<polygon fill="none" stroke="#000000" points="411.4845,-989 349.0688,-989 349.0688,-953 411.4845,-953 411.4845,-989"/>
<text text-anchor="middle" x="380.2766" y="-967.7" font-family="Courier,monospace" font-size="11.00" fill="#000000">Account</text>
</g>
<!-- \\VivialConnect\\Resources\\Account&#45;&gt;\\VivialConnect\\Resources\\Resource -->
<g id="edge3" class="edge">
<title>\\VivialConnect\\Resources\\Account&#45;&gt;\\VivialConnect\\Resources\\Resource</title>
<path fill="none" stroke="#000000" d="M348.9505,-980.6631C335.9816,-985.1864 321.0036,-991.1047 308.1675,-998 248.4364,-1030.0864 186.036,-1079.0367 150.8123,-1108.3396"/>
<polygon fill="none" stroke="#000000" points="148.2948,-1105.8828 142.8801,-1114.9895 152.792,-1111.2471 148.2948,-1105.8828"/>
</g>
<!-- \\VivialConnect\\Resources\\ResourceException -->
<g id="node5" class="node">
<title>\\VivialConnect\\Resources\\ResourceException</title>
<polygon fill="none" stroke="#000000" points="444.4951,-881 316.0582,-881 316.0582,-845 444.4951,-845 444.4951,-881"/>
<text text-anchor="middle" x="380.2766" y="-859.7" font-family="Courier,monospace" font-size="11.00" fill="#000000">ResourceException</text>
</g>
<!-- \\RuntimeException -->
<g id="node20" class="node">
<title>\\RuntimeException</title>
<ellipse fill="none" stroke="#000000" cx="122.0838" cy="-72" rx="78.7539" ry="18"/>
<text text-anchor="middle" x="122.0838" y="-67.8" font-family="Times,serif" font-size="14.00" fill="#c0c0c0">\RuntimeException</text>
</g>
<!-- \\VivialConnect\\Resources\\ResourceException&#45;&gt;\\RuntimeException -->
<g id="edge4" class="edge">
<title>\\VivialConnect\\Resources\\ResourceException&#45;&gt;\\RuntimeException</title>
<path fill="none" stroke="#000000" d="M320.4039,-844.7918C315.7312,-841.4909 311.5307,-837.5957 308.1675,-833 211.4744,-700.8715 352.1355,-222.087 244.1675,-99 235.1254,-88.6917 223.1125,-81.8267 210.1453,-77.3332"/>
<polygon fill="none" stroke="#000000" points="211.1471,-73.9797 200.5634,-74.4652 209.1398,-80.6858 211.1471,-73.9797"/>
</g>
<!-- \\VivialConnect\\Resources\\Collection -->
<g id="node6" class="node">
<title>\\VivialConnect\\Resources\\Collection</title>
<polygon fill="none" stroke="#000000" points="421.2874,-935 339.2659,-935 339.2659,-899 421.2874,-899 421.2874,-935"/>
<text text-anchor="middle" x="380.2766" y="-913.7" font-family="Courier,monospace" font-size="11.00" fill="#000000">Collection</text>
</g>
<!-- \\IteratorAggregate -->
<g id="node21" class="node">
<title>\\IteratorAggregate</title>
<ellipse fill="none" stroke="#000000" cx="122.0838" cy="-234" rx="75.3276" ry="18"/>
<text text-anchor="middle" x="122.0838" y="-229.8" font-family="Times,serif" font-size="14.00" fill="#c0c0c0">\IteratorAggregate</text>
</g>
<!-- \\VivialConnect\\Resources\\Collection&#45;&gt;\\IteratorAggregate -->
<g id="edge5" class="edge">
<title>\\VivialConnect\\Resources\\Collection&#45;&gt;\\IteratorAggregate</title>
<path fill="none" stroke="#000000" stroke-dasharray="1,5" d="M338.9211,-908.8261C327.6519,-904.8121 316.3194,-898.8482 308.1675,-890 219.5821,-793.8482 145.3355,-375.2805 126.6289,-262.2298"/>
<polygon fill="none" stroke="#000000" points="130.0667,-261.5653 124.9933,-252.2642 123.1592,-262.6991 130.0667,-261.5653"/>
</g>
<!-- \\Countable -->
<g id="node22" class="node">
<title>\\Countable</title>
<ellipse fill="none" stroke="#000000" cx="122.0838" cy="-180" rx="48.8273" ry="18"/>
<text text-anchor="middle" x="122.0838" y="-175.8" font-family="Times,serif" font-size="14.00" fill="#c0c0c0">\Countable</text>
</g>
<!-- \\VivialConnect\\Resources\\Collection&#45;&gt;\\Countable -->
<g id="edge6" class="edge">
<title>\\VivialConnect\\Resources\\Collection&#45;&gt;\\Countable</title>
<path fill="none" stroke="#000000" stroke-dasharray="1,5" d="M338.989,-910.1105C327.3024,-906.1378 315.7206,-899.8745 308.1675,-890 215.5504,-768.9181 345.0619,-321.2764 244.1675,-207 228.4612,-189.2105 203.9058,-181.6909 180.9233,-178.9139"/>
<polygon fill="none" stroke="#000000" points="181.1394,-175.419 170.8574,-177.9748 180.489,-182.3887 181.1394,-175.419"/>
</g>
<!-- \\ArrayAccess -->
<g id="node23" class="node">
<title>\\ArrayAccess</title>
<ellipse fill="none" stroke="#000000" cx="122.0838" cy="-126" rx="58.465" ry="18"/>
<text text-anchor="middle" x="122.0838" y="-121.8" font-family="Times,serif" font-size="14.00" fill="#c0c0c0">\ArrayAccess</text>
</g>
<!-- \\VivialConnect\\Resources\\Collection&#45;&gt;\\ArrayAccess -->
<g id="edge7" class="edge">
<title>\\VivialConnect\\Resources\\Collection&#45;&gt;\\ArrayAccess</title>
<path fill="none" stroke="#000000" stroke-dasharray="1,5" d="M338.948,-910.1418C327.2595,-906.1705 315.687,-899.9001 308.1675,-890 208.7344,-759.0859 352.5517,-276.6054 244.1675,-153 230.639,-137.5715 210.4554,-129.8557 190.3761,-126.2604"/>
<polygon fill="none" stroke="#000000" points="190.6426,-122.7621 180.2405,-124.7736 189.6266,-129.688 190.6426,-122.7621"/>
</g>
<!-- \\VivialConnect\\Resources\\Message -->
<g id="node7" class="node">
<title>\\VivialConnect\\Resources\\Message</title>
<polygon fill="none" stroke="#000000" points="411.4845,-1313 349.0688,-1313 349.0688,-1277 411.4845,-1277 411.4845,-1313"/>
<text text-anchor="middle" x="380.2766" y="-1291.7" font-family="Courier,monospace" font-size="11.00" fill="#000000">Message</text>
</g>
<!-- \\VivialConnect\\Resources\\Message&#45;&gt;\\VivialConnect\\Resources\\Resource -->
<g id="edge8" class="edge">
<title>\\VivialConnect\\Resources\\Message&#45;&gt;\\VivialConnect\\Resources\\Resource</title>
<path fill="none" stroke="#000000" d="M348.9505,-1285.3369C335.9816,-1280.8136 321.0036,-1274.8953 308.1675,-1268 248.4364,-1235.9136 186.036,-1186.9633 150.8123,-1157.6604"/>
<polygon fill="none" stroke="#000000" points="152.792,-1154.7529 142.8801,-1151.0105 148.2948,-1160.1172 152.792,-1154.7529"/>
</g>
<!-- \\VivialConnect\\Resources\\Configuration -->
<g id="node8" class="node">
<title>\\VivialConnect\\Resources\\Configuration</title>
<polygon fill="none" stroke="#000000" points="431.0908,-1259 329.4625,-1259 329.4625,-1223 431.0908,-1223 431.0908,-1259"/>
<text text-anchor="middle" x="380.2766" y="-1237.7" font-family="Courier,monospace" font-size="11.00" fill="#000000">Configuration</text>
</g>
<!-- \\VivialConnect\\Resources\\Configuration&#45;&gt;\\VivialConnect\\Resources\\Resource -->
<g id="edge10" class="edge">
<title>\\VivialConnect\\Resources\\Configuration&#45;&gt;\\VivialConnect\\Resources\\Resource</title>
<path fill="none" stroke="#000000" d="M330.8814,-1222.8959C323.2503,-1219.9863 315.4789,-1216.9577 308.1675,-1214 261.345,-1195.0585 208.6116,-1171.9316 171.269,-1155.2461"/>
<polygon fill="none" stroke="#000000" points="172.6768,-1152.0417 162.1196,-1151.1492 169.8161,-1158.4304 172.6768,-1152.0417"/>
</g>
<!-- \\VivialConnect\\Resources\\Attachment -->
<g id="node9" class="node">
<title>\\VivialConnect\\Resources\\Attachment</title>
<polygon fill="none" stroke="#000000" points="421.2874,-1205 339.2659,-1205 339.2659,-1169 421.2874,-1169 421.2874,-1205"/>
<text text-anchor="middle" x="380.2766" y="-1183.7" font-family="Courier,monospace" font-size="11.00" fill="#000000">Attachment</text>
</g>
<!-- \\VivialConnect\\Resources\\Attachment&#45;&gt;\\VivialConnect\\Resources\\Resource -->
<g id="edge12" class="edge">
<title>\\VivialConnect\\Resources\\Attachment&#45;&gt;\\VivialConnect\\Resources\\Resource</title>
<path fill="none" stroke="#000000" d="M339.0797,-1178.3838C294.0204,-1168.9599 221.7533,-1153.8455 173.132,-1143.6765"/>
<polygon fill="none" stroke="#000000" points="173.6387,-1140.2068 163.1339,-1141.5855 172.2056,-1147.0586 173.6387,-1140.2068"/>
</g>
<!-- \\VivialConnect\\Resources\\User -->
<g id="node10" class="node">
<title>\\VivialConnect\\Resources\\User</title>
<polygon fill="none" stroke="#000000" points="407.2766,-1151 353.2766,-1151 353.2766,-1115 407.2766,-1115 407.2766,-1151"/>
<text text-anchor="middle" x="380.2766" y="-1129.7" font-family="Courier,monospace" font-size="11.00" fill="#000000">User</text>
</g>
<!-- \\VivialConnect\\Resources\\User&#45;&gt;\\VivialConnect\\Resources\\Resource -->
<g id="edge13" class="edge">
<title>\\VivialConnect\\Resources\\User&#45;&gt;\\VivialConnect\\Resources\\Resource</title>
<path fill="none" stroke="#000000" d="M353.1335,-1133C310.5617,-1133 227.3785,-1133 173.3033,-1133"/>
<polygon fill="none" stroke="#000000" points="173.2294,-1129.5001 163.2293,-1133 173.2293,-1136.5001 173.2294,-1129.5001"/>
</g>
<!-- \\VivialConnect\\Transport\\Connection -->
<g id="node11" class="node">
<title>\\VivialConnect\\Transport\\Connection</title>
<polygon fill="none" stroke="#000000" points="421.2874,-802 339.2659,-802 339.2659,-766 421.2874,-766 421.2874,-802"/>
<text text-anchor="middle" x="380.2766" y="-780.7" font-family="Courier,monospace" font-size="11.00" fill="#000000">Connection</text>
</g>
<!-- \\VivialConnect\\Transport\\ConnectionManager -->
<g id="node12" class="node">
<title>\\VivialConnect\\Transport\\ConnectionManager</title>
<polygon fill="none" stroke="#000000" points="444.4951,-748 316.0582,-748 316.0582,-712 444.4951,-712 444.4951,-748"/>
<text text-anchor="middle" x="380.2766" y="-726.7" font-family="Courier,monospace" font-size="11.00" fill="#000000">ConnectionManager</text>
</g>
<!-- \\VivialConnect\\Common\\ResponseException -->
<g id="node13" class="node">
<title>\\VivialConnect\\Common\\ResponseException</title>
<polygon fill="none" stroke="#000000" points="444.4951,-669 316.0582,-669 316.0582,-633 444.4951,-633 444.4951,-669"/>
<text text-anchor="middle" x="380.2766" y="-647.7" font-family="Courier,monospace" font-size="11.00" fill="#000000">ResponseException</text>
</g>
<!-- \\VivialConnect\\Common\\ResponseException&#45;&gt;\\RuntimeException -->
<g id="edge9" class="edge">
<title>\\VivialConnect\\Common\\ResponseException&#45;&gt;\\RuntimeException</title>
<path fill="none" stroke="#000000" d="M317.3435,-632.8802C313.9248,-630.3038 310.8135,-627.3611 308.1675,-624 162.7672,-439.3049 402.1835,-273.0244 244.1675,-99 234.9498,-88.8485 222.8479,-82.0628 209.8464,-77.6"/>
<polygon fill="none" stroke="#000000" points="210.8315,-74.2415 200.2486,-74.7461 208.8362,-80.9512 210.8315,-74.2415"/>
</g>
<!-- \\VivialConnect\\Common\\Inflector -->
<g id="node14" class="node">
<title>\\VivialConnect\\Common\\Inflector</title>
<polygon fill="none" stroke="#000000" points="418.1874,-615 342.3659,-615 342.3659,-579 418.1874,-579 418.1874,-615"/>
<text text-anchor="middle" x="380.2766" y="-593.7" font-family="Courier,monospace" font-size="11.00" fill="#000000">Inflector</text>
</g>
<!-- \\VivialConnect\\Common\\Utility -->
<g id="node15" class="node">
<title>\\VivialConnect\\Common\\Utility</title>
<polygon fill="none" stroke="#000000" points="411.4845,-561 349.0688,-561 349.0688,-525 411.4845,-525 411.4845,-561"/>
<text text-anchor="middle" x="380.2766" y="-539.7" font-family="Courier,monospace" font-size="11.00" fill="#000000">Utility</text>
</g>
<!-- \\VivialConnect\\Common\\Request -->
<g id="node16" class="node">
<title>\\VivialConnect\\Common\\Request</title>
<polygon fill="none" stroke="#000000" points="411.4845,-507 349.0688,-507 349.0688,-471 411.4845,-471 411.4845,-507"/>
<text text-anchor="middle" x="380.2766" y="-485.7" font-family="Courier,monospace" font-size="11.00" fill="#000000">Request</text>
</g>
<!-- \\VivialConnect\\Common\\Error -->
<g id="node17" class="node">
<title>\\VivialConnect\\Common\\Error</title>
<polygon fill="none" stroke="#000000" points="407.2766,-453 353.2766,-453 353.2766,-417 407.2766,-417 407.2766,-453"/>
<text text-anchor="middle" x="380.2766" y="-431.7" font-family="Courier,monospace" font-size="11.00" fill="#000000">Error</text>
</g>
<!-- \\VivialConnect\\Common\\Response -->
<g id="node18" class="node">
<title>\\VivialConnect\\Common\\Response</title>
<polygon fill="none" stroke="#000000" points="414.5855,-399 345.9678,-399 345.9678,-363 414.5855,-363 414.5855,-399"/>
<text text-anchor="middle" x="380.2766" y="-377.7" font-family="Courier,monospace" font-size="11.00" fill="#000000">Response</text>
</g>
<!-- \\VivialConnect\\Filters\\HmacAuth -->
<g id="node19" class="node">
<title>\\VivialConnect\\Filters\\HmacAuth</title>
<polygon fill="none" stroke="#000000" points="414.5855,-320 345.9678,-320 345.9678,-284 414.5855,-284 414.5855,-320"/>
<text text-anchor="middle" x="380.2766" y="-298.7" font-family="Courier,monospace" font-size="11.00" fill="#000000">HmacAuth</text>
</g>
<!-- \\Optimus\\Onion\\LayerInterface -->
<g id="node24" class="node">
<title>\\Optimus\\Onion\\LayerInterface</title>
<ellipse fill="none" stroke="#000000" cx="122.0838" cy="-18" rx="122.1676" ry="18"/>
<text text-anchor="middle" x="122.0838" y="-13.8" font-family="Times,serif" font-size="14.00" fill="#c0c0c0">\Optimus\Onion\LayerInterface</text>
</g>
<!-- \\VivialConnect\\Filters\\HmacAuth&#45;&gt;\\Optimus\\Onion\\LayerInterface -->
<g id="edge11" class="edge">
<title>\\VivialConnect\\Filters\\HmacAuth&#45;&gt;\\Optimus\\Onion\\LayerInterface</title>
<path fill="none" stroke="#000000" stroke-dasharray="1,5" d="M376.2827,-283.9735C364.81,-236.6451 327.123,-108.1548 244.1675,-45 238.2898,-40.5252 231.8173,-36.763 225.0122,-33.603"/>
<polygon fill="none" stroke="#000000" points="226.1275,-30.276 215.5508,-29.6568 223.4328,-36.7366 226.1275,-30.276"/>
</g>
</g>
</svg>
