<?xml version="1.0" encoding="UTF-8" standalone="no"?>
<!DOCTYPE svg PUBLIC "-//W3C//DTD SVG 1.1//EN"
 "http://www.w3.org/Graphics/SVG/1.1/DTD/svg11.dtd">
<!-- Generated by graphviz version 2.40.1 (20161225.0304)
 -->
<!-- Title: G Pages: 1 -->
<svg width="670pt" height="1356pt"
 viewBox="0.00 0.00 670.40 1356.00" xmlns="http://www.w3.org/2000/svg" xmlns:xlink="http://www.w3.org/1999/xlink">
<g id="graph0" class="graph" transform="scale(1 1) rotate(0) translate(4 1352)">
<title>G</title>
<polygon fill="#ffffff" stroke="transparent" points="-4,4 -4,-1352 666.3965,-1352 666.3965,4 -4,4"/>
<g id="clust1" class="cluster">
<title>cluster_Global</title>
<path fill="none" stroke="#c0c0c0" d="M20,-260C20,-260 642.3965,-260 642.3965,-260 648.3965,-260 654.3965,-266 654.3965,-272 654.3965,-272 654.3965,-1328 654.3965,-1328 654.3965,-1334 648.3965,-1340 642.3965,-1340 642.3965,-1340 20,-1340 20,-1340 14,-1340 8,-1334 8,-1328 8,-1328 8,-272 8,-272 8,-266 14,-260 20,-260"/>
<text text-anchor="middle" x="331.1983" y="-1327.2" font-family="Times,serif" font-size="11.00" fill="#c0c0c0">Global</text>
</g>
<g id="clust2" class="cluster">
<title>cluster_\VivialConnect</title>
<path fill="none" stroke="#c0c0c0" d="M28,-268C28,-268 634.3965,-268 634.3965,-268 640.3965,-268 646.3965,-274 646.3965,-280 646.3965,-280 646.3965,-1301 646.3965,-1301 646.3965,-1307 640.3965,-1313 634.3965,-1313 634.3965,-1313 28,-1313 28,-1313 22,-1313 16,-1307 16,-1301 16,-1301 16,-280 16,-280 16,-274 22,-268 28,-268"/>
<text text-anchor="middle" x="331.1983" y="-1300.2" font-family="Times,serif" font-size="11.00" fill="#c0c0c0">VivialConnect</text>
</g>
<g id="clust3" class="cluster">
<title>cluster_\VivialConnect\Common</title>
<path fill="none" stroke="#c0c0c0" d="M506.1783,-488C506.1783,-488 626.3965,-488 626.3965,-488 632.3965,-488 638.3965,-494 638.3965,-500 638.3965,-500 638.3965,-817 638.3965,-817 638.3965,-823 632.3965,-829 626.3965,-829 626.3965,-829 506.1783,-829 506.1783,-829 500.1783,-829 494.1783,-823 494.1783,-817 494.1783,-817 494.1783,-500 494.1783,-500 494.1783,-494 500.1783,-488 506.1783,-488"/>
<text text-anchor="middle" x="566.2874" y="-816.2" font-family="Times,serif" font-size="11.00" fill="#c0c0c0">Common</text>
</g>
<g id="clust4" class="cluster">
<title>cluster_\VivialConnect\Filters</title>
<path fill="none" stroke="#c0c0c0" d="M535.8831,-409C535.8831,-409 596.6917,-409 596.6917,-409 602.6917,-409 608.6917,-415 608.6917,-421 608.6917,-421 608.6917,-468 608.6917,-468 608.6917,-474 602.6917,-480 596.6917,-480 596.6917,-480 535.8831,-480 535.8831,-480 529.8831,-480 523.8831,-474 523.8831,-468 523.8831,-468 523.8831,-421 523.8831,-421 523.8831,-415 529.8831,-409 535.8831,-409"/>
<text text-anchor="middle" x="566.2874" y="-467.2" font-family="Times,serif" font-size="11.00" fill="#c0c0c0">Filters</text>
</g>
<g id="clust5" class="cluster">
<title>cluster_\VivialConnect\Resources</title>
<path fill="none" stroke="#c0c0c0" d="M36,-837C36,-837 626.3965,-837 626.3965,-837 632.3965,-837 638.3965,-843 638.3965,-849 638.3965,-849 638.3965,-1274 638.3965,-1274 638.3965,-1280 632.3965,-1286 626.3965,-1286 626.3965,-1286 36,-1286 36,-1286 30,-1286 24,-1280 24,-1274 24,-1274 24,-849 24,-849 24,-843 30,-837 36,-837"/>
<text text-anchor="middle" x="331.1983" y="-1273.2" font-family="Times,serif" font-size="11.00" fill="#c0c0c0">Resources</text>
</g>
<g id="clust6" class="cluster">
<title>cluster_\VivialConnect\Transport</title>
<path fill="none" stroke="#c0c0c0" d="M506.1783,-276C506.1783,-276 626.3965,-276 626.3965,-276 632.3965,-276 638.3965,-282 638.3965,-288 638.3965,-288 638.3965,-389 638.3965,-389 638.3965,-395 632.3965,-401 626.3965,-401 626.3965,-401 506.1783,-401 506.1783,-401 500.1783,-401 494.1783,-395 494.1783,-389 494.1783,-389 494.1783,-288 494.1783,-288 494.1783,-282 500.1783,-276 506.1783,-276"/>
<text text-anchor="middle" x="566.2874" y="-388.2" font-family="Times,serif" font-size="11.00" fill="#c0c0c0">Transport</text>
</g>
<!-- \\VivialConnect\\Common\\Error -->
<g id="node1" class="node">
<title>\\VivialConnect\\Common\\Error</title>
<polygon fill="none" stroke="#000000" points="593.2874,-802 539.2874,-802 539.2874,-766 593.2874,-766 593.2874,-802"/>
<text text-anchor="middle" x="566.2874" y="-780.7" font-family="Courier,monospace" font-size="11.00" fill="#000000">Error</text>
</g>
<!-- \\VivialConnect\\Common\\Inflector -->
<g id="node2" class="node">
<title>\\VivialConnect\\Common\\Inflector</title>
<polygon fill="none" stroke="#000000" points="604.1982,-748 528.3766,-748 528.3766,-712 604.1982,-712 604.1982,-748"/>
<text text-anchor="middle" x="566.2874" y="-726.7" font-family="Courier,monospace" font-size="11.00" fill="#000000">Inflector</text>
</g>
<!-- \\VivialConnect\\Common\\Request -->
<g id="node3" class="node">
<title>\\VivialConnect\\Common\\Request</title>
<polygon fill="none" stroke="#000000" points="597.4953,-694 535.0795,-694 535.0795,-658 597.4953,-658 597.4953,-694"/>
<text text-anchor="middle" x="566.2874" y="-672.7" font-family="Courier,monospace" font-size="11.00" fill="#000000">Request</text>
</g>
<!-- \\VivialConnect\\Common\\Response -->
<g id="node4" class="node">
<title>\\VivialConnect\\Common\\Response</title>
<polygon fill="none" stroke="#000000" points="600.5962,-640 531.9785,-640 531.9785,-604 600.5962,-604 600.5962,-640"/>
<text text-anchor="middle" x="566.2874" y="-618.7" font-family="Courier,monospace" font-size="11.00" fill="#000000">Response</text>
</g>
<!-- \\VivialConnect\\Common\\ResponseException -->
<g id="node5" class="node">
<title>\\VivialConnect\\Common\\ResponseException</title>
<polygon fill="none" stroke="#000000" points="630.5058,-586 502.0689,-586 502.0689,-550 630.5058,-550 630.5058,-586"/>
<text text-anchor="middle" x="566.2874" y="-564.7" font-family="Courier,monospace" font-size="11.00" fill="#000000">ResponseException</text>
</g>
<!-- \\RuntimeException -->
<g id="node23" class="node">
<title>\\RuntimeException</title>
<ellipse fill="none" stroke="#000000" cx="308.0945" cy="-72" rx="78.7539" ry="18"/>
<text text-anchor="middle" x="308.0945" y="-67.8" font-family="Times,serif" font-size="14.00" fill="#c0c0c0">\RuntimeException</text>
</g>
<!-- \\VivialConnect\\Common\\ResponseException&#45;&gt;\\RuntimeException -->
<g id="edge1" class="edge">
<title>\\VivialConnect\\Common\\ResponseException&#45;&gt;\\RuntimeException</title>
<path fill="none" stroke="#000000" d="M503.4407,-549.8114C500.0013,-547.2514 496.8619,-544.3311 494.1783,-541 369.6514,-386.4278 565.2563,-244.4422 430.1783,-99 420.847,-88.9528 408.6876,-82.2199 395.6638,-77.7776"/>
<polygon fill="none" stroke="#000000" points="396.638,-74.4159 386.0558,-74.933 394.6508,-81.1279 396.638,-74.4159"/>
</g>
<!-- \\VivialConnect\\Common\\Utility -->
<g id="node6" class="node">
<title>\\VivialConnect\\Common\\Utility</title>
<polygon fill="none" stroke="#000000" points="597.4953,-532 535.0795,-532 535.0795,-496 597.4953,-496 597.4953,-532"/>
<text text-anchor="middle" x="566.2874" y="-510.7" font-family="Courier,monospace" font-size="11.00" fill="#000000">Utility</text>
</g>
<!-- \\VivialConnect\\Filters\\HmacAuth -->
<g id="node7" class="node">
<title>\\VivialConnect\\Filters\\HmacAuth</title>
<polygon fill="none" stroke="#000000" points="600.5962,-453 531.9785,-453 531.9785,-417 600.5962,-417 600.5962,-453"/>
<text text-anchor="middle" x="566.2874" y="-431.7" font-family="Courier,monospace" font-size="11.00" fill="#000000">HmacAuth</text>
</g>
<!-- \\Optimus\\Onion\\LayerInterface -->
<g id="node24" class="node">
<title>\\Optimus\\Onion\\LayerInterface</title>
<ellipse fill="none" stroke="#000000" cx="308.0945" cy="-18" rx="122.1676" ry="18"/>
<text text-anchor="middle" x="308.0945" y="-13.8" font-family="Times,serif" font-size="14.00" fill="#c0c0c0">\Optimus\Onion\LayerInterface</text>
</g>
<!-- \\VivialConnect\\Filters\\HmacAuth&#45;&gt;\\Optimus\\Onion\\LayerInterface -->
<g id="edge2" class="edge">
<title>\\VivialConnect\\Filters\\HmacAuth&#45;&gt;\\Optimus\\Onion\\LayerInterface</title>
<path fill="none" stroke="#000000" stroke-dasharray="1,5" d="M531.7863,-428.2076C518.1394,-423.8075 503.5131,-416.6327 494.1783,-405 392.4696,-278.2544 542.6676,-162.2827 430.1783,-45 425.9428,-40.5841 421.16,-36.8133 416.0017,-33.5991"/>
<polygon fill="none" stroke="#000000" points="417.4533,-30.4044 406.9965,-28.6997 414.1078,-36.5533 417.4533,-30.4044"/>
</g>
<!-- \\VivialConnect\\Resources\\Account -->
<g id="node8" class="node">
<title>\\VivialConnect\\Resources\\Account</title>
<polygon fill="none" stroke="#000000" points="339.3024,-1259 276.8866,-1259 276.8866,-1223 339.3024,-1223 339.3024,-1259"/>
<text text-anchor="middle" x="308.0945" y="-1237.7" font-family="Courier,monospace" font-size="11.00" fill="#000000">Account</text>
</g>
<!-- \\VivialConnect\\Resources\\Resource -->
<g id="node17" class="node">
<title>\\VivialConnect\\Resources\\Resource</title>
<polygon fill="none" stroke="#000000" points="114.0161,-1070 31.9946,-1070 31.9946,-1034 114.0161,-1034 114.0161,-1070"/>
<text text-anchor="start" x="40" y="-1054.2" font-family="Courier,monospace" font-size="11.00" fill="#000000">«abstract»</text>
<text text-anchor="start" x="46.6011" y="-1043.2" font-family="Courier,monospace" font-size="11.00" fill="#000000">Resource</text>
</g>
<!-- \\VivialConnect\\Resources\\Account&#45;&gt;\\VivialConnect\\Resources\\Resource -->
<g id="edge3" class="edge">
<title>\\VivialConnect\\Resources\\Account&#45;&gt;\\VivialConnect\\Resources\\Resource</title>
<path fill="none" stroke="#000000" d="M276.8159,-1240.2792C250.5841,-1238.3055 213.1629,-1232.1673 186.0107,-1214 135.8622,-1180.4459 101.2645,-1116.4845 84.5318,-1079.7674"/>
<polygon fill="none" stroke="#000000" points="87.5367,-1077.9088 80.288,-1070.1817 81.1359,-1080.7426 87.5367,-1077.9088"/>
</g>
<!-- \\VivialConnect\\Resources\\Attachment -->
<g id="node9" class="node">
<title>\\VivialConnect\\Resources\\Attachment</title>
<polygon fill="none" stroke="#000000" points="349.1052,-1205 267.0838,-1205 267.0838,-1169 349.1052,-1169 349.1052,-1205"/>
<text text-anchor="middle" x="308.0945" y="-1183.7" font-family="Courier,monospace" font-size="11.00" fill="#000000">Attachment</text>
</g>
<!-- \\VivialConnect\\Resources\\Attachment&#45;&gt;\\VivialConnect\\Resources\\Resource -->
<g id="edge4" class="edge">
<title>\\VivialConnect\\Resources\\Attachment&#45;&gt;\\VivialConnect\\Resources\\Resource</title>
<path fill="none" stroke="#000000" d="M266.8597,-1183.5113C242.2394,-1180.0928 211.0027,-1173.337 186.0107,-1160 147.9372,-1139.682 113.5596,-1102.9324 92.9777,-1078.0055"/>
<polygon fill="none" stroke="#000000" points="95.5507,-1075.621 86.5412,-1070.046 90.1077,-1080.0226 95.5507,-1075.621"/>
</g>
<!-- \\VivialConnect\\Resources\\Collection -->
<g id="node10" class="node">
<title>\\VivialConnect\\Resources\\Collection</title>
<polygon fill="none" stroke="#000000" points="607.2981,-935 525.2766,-935 525.2766,-899 607.2981,-899 607.2981,-935"/>
<text text-anchor="middle" x="566.2874" y="-913.7" font-family="Courier,monospace" font-size="11.00" fill="#000000">Collection</text>
</g>
<!-- \\IteratorAggregate -->
<g id="node25" class="node">
<title>\\IteratorAggregate</title>
<ellipse fill="none" stroke="#000000" cx="308.0945" cy="-180" rx="75.3276" ry="18"/>
<text text-anchor="middle" x="308.0945" y="-175.8" font-family="Times,serif" font-size="14.00" fill="#c0c0c0">\IteratorAggregate</text>
</g>
<!-- \\VivialConnect\\Resources\\Collection&#45;&gt;\\IteratorAggregate -->
<g id="edge5" class="edge">
<title>\\VivialConnect\\Resources\\Collection&#45;&gt;\\IteratorAggregate</title>
<path fill="none" stroke="#000000" stroke-dasharray="1,5" d="M524.9997,-910.1105C513.3132,-906.1378 501.7314,-899.8745 494.1783,-890 401.5611,-768.9181 531.0726,-321.2764 430.1783,-207 420.4312,-195.9601 407.276,-188.8754 393.2038,-184.4249"/>
<polygon fill="none" stroke="#000000" points="393.9133,-180.9909 383.3456,-181.7484 392.0791,-187.7463 393.9133,-180.9909"/>
</g>
<!-- \\Countable -->
<g id="node26" class="node">
<title>\\Countable</title>
<ellipse fill="none" stroke="#000000" cx="308.0945" cy="-126" rx="48.8273" ry="18"/>
<text text-anchor="middle" x="308.0945" y="-121.8" font-family="Times,serif" font-size="14.00" fill="#c0c0c0">\Countable</text>
</g>
<!-- \\VivialConnect\\Resources\\Collection&#45;&gt;\\Countable -->
<g id="edge6" class="edge">
<title>\\VivialConnect\\Resources\\Collection&#45;&gt;\\Countable</title>
<path fill="none" stroke="#000000" stroke-dasharray="1,5" d="M524.9588,-910.1418C513.2703,-906.1705 501.6977,-899.9001 494.1783,-890 394.7451,-759.0859 538.5625,-276.6054 430.1783,-153 414.5326,-135.1571 389.986,-127.6297 366.9938,-124.8614"/>
<polygon fill="none" stroke="#000000" points="367.2031,-121.3658 356.9225,-123.927 366.5564,-128.3359 367.2031,-121.3658"/>
</g>
<!-- \\ArrayAccess -->
<g id="node27" class="node">
<title>\\ArrayAccess</title>
<ellipse fill="none" stroke="#000000" cx="308.0945" cy="-234" rx="58.465" ry="18"/>
<text text-anchor="middle" x="308.0945" y="-229.8" font-family="Times,serif" font-size="14.00" fill="#c0c0c0">\ArrayAccess</text>
</g>
<!-- \\VivialConnect\\Resources\\Collection&#45;&gt;\\ArrayAccess -->
<g id="edge7" class="edge">
<title>\\VivialConnect\\Resources\\Collection&#45;&gt;\\ArrayAccess</title>
<path fill="none" stroke="#000000" stroke-dasharray="1,5" d="M524.9319,-908.8261C513.6627,-904.8121 502.3302,-898.8482 494.1783,-890 405.5929,-793.8482 331.3462,-375.2805 312.6396,-262.2298"/>
<polygon fill="none" stroke="#000000" points="316.0775,-261.5653 311.0041,-252.2642 309.1699,-262.6991 316.0775,-261.5653"/>
</g>
<!-- \\VivialConnect\\Resources\\Connector -->
<g id="node11" class="node">
<title>\\VivialConnect\\Resources\\Connector</title>
<polygon fill="none" stroke="#000000" points="346.0053,-1151 270.1837,-1151 270.1837,-1115 346.0053,-1115 346.0053,-1151"/>
<text text-anchor="middle" x="308.0945" y="-1129.7" font-family="Courier,monospace" font-size="11.00" fill="#000000">Connector</text>
</g>
<!-- \\VivialConnect\\Resources\\Connector&#45;&gt;\\VivialConnect\\Resources\\Resource -->
<g id="edge8" class="edge">
<title>\\VivialConnect\\Resources\\Connector&#45;&gt;\\VivialConnect\\Resources\\Resource</title>
<path fill="none" stroke="#000000" d="M270.3525,-1126.9527C245.913,-1122.4783 213.6154,-1115.5082 186.0107,-1106 161.6553,-1097.611 135.6411,-1085.4219 114.7192,-1074.7465"/>
<polygon fill="none" stroke="#000000" points="116.2773,-1071.6119 105.7875,-1070.1238 113.0598,-1077.8287 116.2773,-1071.6119"/>
</g>
<!-- \\VivialConnect\\Resources\\ConnectorNumber -->
<g id="node12" class="node">
<title>\\VivialConnect\\Resources\\ConnectorNumber</title>
<polygon fill="none" stroke="#000000" points="623.8035,-1124 508.7713,-1124 508.7713,-1088 623.8035,-1088 623.8035,-1124"/>
<text text-anchor="middle" x="566.2874" y="-1102.7" font-family="Courier,monospace" font-size="11.00" fill="#000000">ConnectorNumber</text>
</g>
<!-- \\VivialConnect\\Resources\\SubResource -->
<g id="node19" class="node">
<title>\\VivialConnect\\Resources\\SubResource</title>
<polygon fill="none" stroke="#000000" points="352.2072,-1097 263.9818,-1097 263.9818,-1061 352.2072,-1061 352.2072,-1097"/>
<text text-anchor="middle" x="308.0945" y="-1075.7" font-family="Courier,monospace" font-size="11.00" fill="#000000">SubResource</text>
</g>
<!-- \\VivialConnect\\Resources\\ConnectorNumber&#45;&gt;\\VivialConnect\\Resources\\SubResource -->
<g id="edge9" class="edge">
<title>\\VivialConnect\\Resources\\ConnectorNumber&#45;&gt;\\VivialConnect\\Resources\\SubResource</title>
<path fill="none" stroke="#000000" d="M508.6652,-1099.9743C464.9107,-1095.3987 405.1606,-1089.1505 362.2759,-1084.6659"/>
<polygon fill="none" stroke="#000000" points="362.6138,-1081.1823 352.304,-1083.6231 361.8857,-1088.1443 362.6138,-1081.1823"/>
</g>
<!-- \\VivialConnect\\Resources\\ConnectorCallback -->
<g id="node13" class="node">
<title>\\VivialConnect\\Resources\\ConnectorCallback</title>
<polygon fill="none" stroke="#000000" points="630.5058,-1070 502.0689,-1070 502.0689,-1034 630.5058,-1034 630.5058,-1070"/>
<text text-anchor="middle" x="566.2874" y="-1048.7" font-family="Courier,monospace" font-size="11.00" fill="#000000">ConnectorCallback</text>
</g>
<!-- \\VivialConnect\\Resources\\ConnectorCallback&#45;&gt;\\VivialConnect\\Resources\\SubResource -->
<g id="edge10" class="edge">
<title>\\VivialConnect\\Resources\\ConnectorCallback&#45;&gt;\\VivialConnect\\Resources\\SubResource</title>
<path fill="none" stroke="#000000" d="M502.1327,-1058.7088C459.1759,-1063.201 403.2475,-1069.0496 362.4779,-1073.313"/>
<polygon fill="none" stroke="#000000" points="362.0382,-1069.8398 352.4565,-1074.3609 362.7663,-1076.8018 362.0382,-1069.8398"/>
</g>
<!-- \\VivialConnect\\Resources\\Log -->
<g id="node14" class="node">
<title>\\VivialConnect\\Resources\\Log</title>
<polygon fill="none" stroke="#000000" points="335.0945,-1043 281.0945,-1043 281.0945,-1007 335.0945,-1007 335.0945,-1043"/>
<text text-anchor="middle" x="308.0945" y="-1021.7" font-family="Courier,monospace" font-size="11.00" fill="#000000">Log</text>
</g>
<!-- \\VivialConnect\\Resources\\Log&#45;&gt;\\VivialConnect\\Resources\\Resource -->
<g id="edge11" class="edge">
<title>\\VivialConnect\\Resources\\Log&#45;&gt;\\VivialConnect\\Resources\\Resource</title>
<path fill="none" stroke="#000000" d="M280.6667,-1028.1501C242.4135,-1032.5435 172.3377,-1040.5917 124.2541,-1046.1141"/>
<polygon fill="none" stroke="#000000" points="123.5814,-1042.6682 114.0461,-1047.2865 124.3802,-1049.6225 123.5814,-1042.6682"/>
</g>
<!-- \\VivialConnect\\Resources\\Message -->
<g id="node15" class="node">
<title>\\VivialConnect\\Resources\\Message</title>
<polygon fill="none" stroke="#000000" points="339.3024,-989 276.8866,-989 276.8866,-953 339.3024,-953 339.3024,-989"/>
<text text-anchor="middle" x="308.0945" y="-967.7" font-family="Courier,monospace" font-size="11.00" fill="#000000">Message</text>
</g>
<!-- \\VivialConnect\\Resources\\Message&#45;&gt;\\VivialConnect\\Resources\\Resource -->
<g id="edge12" class="edge">
<title>\\VivialConnect\\Resources\\Message&#45;&gt;\\VivialConnect\\Resources\\Resource</title>
<path fill="none" stroke="#000000" d="M276.9527,-975.8644C251.9568,-980.248 216.1809,-987.6081 186.0107,-998 161.6553,-1006.389 135.6411,-1018.5781 114.7192,-1029.2535"/>
<polygon fill="none" stroke="#000000" points="113.0598,-1026.1713 105.7875,-1033.8762 116.2773,-1032.3881 113.0598,-1026.1713"/>
</g>
<!-- \\VivialConnect\\Resources\\Number -->
<g id="node16" class="node">
<title>\\VivialConnect\\Resources\\Number</title>
<polygon fill="none" stroke="#000000" points="335.7023,-935 280.4867,-935 280.4867,-899 335.7023,-899 335.7023,-935"/>
<text text-anchor="middle" x="308.0945" y="-913.7" font-family="Courier,monospace" font-size="11.00" fill="#000000">Number</text>
</g>
<!-- \\VivialConnect\\Resources\\Number&#45;&gt;\\VivialConnect\\Resources\\Resource -->
<g id="edge13" class="edge">
<title>\\VivialConnect\\Resources\\Number&#45;&gt;\\VivialConnect\\Resources\\Resource</title>
<path fill="none" stroke="#000000" d="M280.4384,-918.8428C254.6853,-921.5183 215.8862,-928.0569 186.0107,-944 147.9372,-964.318 113.5596,-1001.0676 92.9777,-1025.9945"/>
<polygon fill="none" stroke="#000000" points="90.1077,-1023.9774 86.5412,-1033.954 95.5507,-1028.379 90.1077,-1023.9774"/>
</g>
<!-- \\VivialConnect\\Resources\\ResourceException -->
<g id="node18" class="node">
<title>\\VivialConnect\\Resources\\ResourceException</title>
<polygon fill="none" stroke="#000000" points="630.5058,-881 502.0689,-881 502.0689,-845 630.5058,-845 630.5058,-881"/>
<text text-anchor="middle" x="566.2874" y="-859.7" font-family="Courier,monospace" font-size="11.00" fill="#000000">ResourceException</text>
</g>
<!-- \\VivialConnect\\Resources\\ResourceException&#45;&gt;\\RuntimeException -->
<g id="edge14" class="edge">
<title>\\VivialConnect\\Resources\\ResourceException&#45;&gt;\\RuntimeException</title>
<path fill="none" stroke="#000000" d="M506.4146,-844.7918C501.742,-841.4909 497.5414,-837.5957 494.1783,-833 397.4852,-700.8715 538.1463,-222.087 430.1783,-99 421.1362,-88.6917 409.1232,-81.8267 396.1561,-77.3332"/>
<polygon fill="none" stroke="#000000" points="397.1578,-73.9797 386.5741,-74.4652 395.1505,-80.6858 397.1578,-73.9797"/>
</g>
<!-- \\VivialConnect\\Resources\\SubResource&#45;&gt;\\VivialConnect\\Resources\\Resource -->
<g id="edge15" class="edge">
<title>\\VivialConnect\\Resources\\SubResource&#45;&gt;\\VivialConnect\\Resources\\Resource</title>
<path fill="none" stroke="#000000" d="M263.876,-1073.9215C224.1872,-1069.3632 165.9285,-1062.6722 124.226,-1057.8827"/>
<polygon fill="none" stroke="#000000" points="124.6021,-1054.403 114.268,-1056.739 123.8033,-1061.3572 124.6021,-1054.403"/>
</g>
<!-- \\VivialConnect\\Resources\\User -->
<g id="node20" class="node">
<title>\\VivialConnect\\Resources\\User</title>
<polygon fill="none" stroke="#000000" points="335.0945,-881 281.0945,-881 281.0945,-845 335.0945,-845 335.0945,-881"/>
<text text-anchor="middle" x="308.0945" y="-859.7" font-family="Courier,monospace" font-size="11.00" fill="#000000">User</text>
</g>
<!-- \\VivialConnect\\Resources\\User&#45;&gt;\\VivialConnect\\Resources\\Resource -->
<g id="edge16" class="edge">
<title>\\VivialConnect\\Resources\\User&#45;&gt;\\VivialConnect\\Resources\\Resource</title>
<path fill="none" stroke="#000000" d="M280.6516,-863.4558C254.3393,-865.1126 214.516,-870.9273 186.0107,-890 135.8622,-923.5541 101.2645,-987.5155 84.5318,-1024.2326"/>
<polygon fill="none" stroke="#000000" points="81.1359,-1023.2574 80.288,-1033.8183 87.5367,-1026.0912 81.1359,-1023.2574"/>
</g>
<!-- \\VivialConnect\\Transport\\Connection -->
<g id="node21" class="node">
<title>\\VivialConnect\\Transport\\Connection</title>
<polygon fill="none" stroke="#000000" points="607.2981,-374 525.2766,-374 525.2766,-338 607.2981,-338 607.2981,-374"/>
<text text-anchor="middle" x="566.2874" y="-352.7" font-family="Courier,monospace" font-size="11.00" fill="#000000">Connection</text>
</g>
<!-- \\VivialConnect\\Transport\\ConnectionManager -->
<g id="node22" class="node">
<title>\\VivialConnect\\Transport\\ConnectionManager</title>
<polygon fill="none" stroke="#000000" points="630.5058,-320 502.0689,-320 502.0689,-284 630.5058,-284 630.5058,-320"/>
<text text-anchor="middle" x="566.2874" y="-298.7" font-family="Courier,monospace" font-size="11.00" fill="#000000">ConnectionManager</text>
</g>
</g>
</svg>
